<svg width="18" height="19" fill="none" xmlns="http://www.w3.org/2000/svg"><g clip-path="url(#a)"><path d="M14.273 12.172a3.161 3.161 0 0 0-2.544 1.286l-4.967-2.539a3.155 3.155 0 0 0-.102-2.078l5.205-3.128a3.158 3.158 0 0 0 2.408 1.115 3.168 3.168 0 0 0 3.165-3.164A3.168 3.168 0 0 0 14.273.5a3.168 3.168 0 0 0-2.95 4.308L6.105 7.943a3.157 3.157 0 0 0-2.378-1.08 3.168 3.168 0 0 0-3.164 3.164 3.162 3.162 0 0 0 5.737 1.84l4.951 2.53a3.168 3.168 0 0 0 3.022 4.102 3.168 3.168 0 0 0 3.165-3.163 3.168 3.168 0 0 0-3.165-3.164Zm0-10.617c1.164 0 2.11.946 2.11 2.11 0 1.162-.946 2.108-2.11 2.108a2.112 2.112 0 0 1-2.109-2.109c0-1.163.946-2.11 2.11-2.11ZM3.727 12.137a2.112 2.112 0 0 1-2.11-2.11c0-1.163.946-2.109 2.11-2.109 1.163 0 2.109.946 2.109 2.11 0 1.162-.946 2.109-2.11 2.109Zm10.546 5.308a2.112 2.112 0 0 1-2.109-2.11c0-1.162.946-2.108 2.11-2.108 1.163 0 2.109.946 2.109 2.109s-.946 2.11-2.11 2.11Z" fill="#2E3521"/></g><defs><clipPath id="a"><path fill="#fff" transform="translate(0 .5)" d="M0 0h18v18H0z"/></clipPath></defs></svg>